HIERARCHY
ROOT HipCenter
{
    OFFSET 0.0 0.0 -0.0
    CHANNELS 6 Xposition Yposition Zposition Zrotation Xrotation Yrotation
    JOINT Spine
    {
        OFFSET 0.0 0.12103895843029022 0.0
        CHANNELS 3 Zrotation Xrotation Yrotation
        JOINT ShoulderCenter
        {
            OFFSET 0.0 0.33444908261299133 0.0
            CHANNELS 3 Zrotation Xrotation Yrotation
            JOINT LeftShoulder
            {
                OFFSET 0.19048361480236053 0.0 0.0
                CHANNELS 3 Zrotation Xrotation Yrotation
                JOINT LeftElbow
                {
                    OFFSET 0.2974995970726013 0.0 0.0
                    CHANNELS 3 Zrotation Xrotation Yrotation
                    JOINT LeftWrist
                    {
                        OFFSET 0.29604482650756836 0.0 0.0
                        CHANNELS 3 Zrotation Xrotation Yrotation
                        JOINT LeftHand
                        {
                            OFFSET 0.04406511411070824 0.0 0.0
                            CHANNELS 3 Zrotation Xrotation Yrotation
                            End Site
                            {
                                OFFSET 0.017626045271754265 0.0 0.0
                            }
                        }
                    }
                }
            }
            JOINT RightShoulder
            {
                OFFSET -0.19048361480236053 0.0 0.0
                CHANNELS 3 Zrotation Xrotation Yrotation
                JOINT RightElbow
                {
                    OFFSET -0.2974995970726013 0.0 0.0
                    CHANNELS 3 Zrotation Xrotation Yrotation
                    JOINT RightWrist
                    {
                        OFFSET -0.29604482650756836 0.0 0.0
                        CHANNELS 3 Zrotation Xrotation Yrotation
                        JOINT RightHand
                        {
                            OFFSET -0.04406511411070824 0.0 0.0
                            CHANNELS 3 Zrotation Xrotation Yrotation
                            End Site
                            {
                                OFFSET -0.017626045271754265 0.0 0.0
                            }
                        }
                    }
                }
            }
            End Site
            {
                OFFSET 0.0 0.1337796300649643 0.0
            }
        }
    }
    JOINT LeftHip
    {
        OFFSET 0.13973641395568848 0.0 0.0
        CHANNELS 3 Zrotation Xrotation Yrotation
        JOINT LeftKnee
        {
            OFFSET 0.0 -0.4064507484436035 0.0
            CHANNELS 3 Zrotation Xrotation Yrotation
            JOINT LeftAnkle
            {
                OFFSET 0.0 -0.447745680809021 0.0
                CHANNELS 3 Zrotation Xrotation Yrotation
                JOINT LeftFoot
                {
                    OFFSET 0.0 -0.10067936778068542 0.0
                    CHANNELS 3 Zrotation Xrotation Yrotation
                    End Site
                    {
                        OFFSET 0.0 0.0 0.04027174785733223
                    }
                }
            }
        }
    }
    JOINT RightHip
    {
        OFFSET -0.13973641395568848 0.0 0.0
        CHANNELS 3 Zrotation Xrotation Yrotation
        JOINT RightKnee
        {
            OFFSET 0.0 -0.4064507484436035 0.0
            CHANNELS 3 Zrotation Xrotation Yrotation
            JOINT RightAnkle
            {
                OFFSET 0.0 -0.447745680809021 0.0
                CHANNELS 3 Zrotation Xrotation Yrotation
                JOINT RightFoot
                {
                    OFFSET 0.0 -0.10067936778068542 0.0
                    CHANNELS 3 Zrotation Xrotation Yrotation
                    End Site
                    {
                        OFFSET 0.0 0.0 0.04027174785733223
                    }
                }
            }
        }
    }
}
MOTION
Frames: 7
Frame Time: 0.03333333333333333
0.5889999866485596 -0.05900000035762787 -0.37700000405311584 -171.36918871482726 19.89650948916749 173.94237964600015 5.412047738155685 -15.232964926272459 2.833356031976429 -1.3833163934805546e-07 4.8479018592453955e-06 -1.667529168156408 112.33519347105718 32.5751261876557 -65.87679654515766 -1.220820711674392e-06 -2.02947985543794e-06 25.295776652988994 2.234994353767665e-06 -65.74813868266344 76.32700483438087 3.1805546814635168e-15 -1.5902773407317584e-15 -3.1805546814635168e-15 -112.93150670889797 26.181848277533806 71.89832772958816 -3.552579070541227e-06 9.445791172474673e-07 -29.045990232089625 -179.99999920976933 -48.00074939160016 97.87361093801215 8.827812596100317e-32 -6.361109362927033e-15 1.5902773407317582e-15 29.820997483180225 35.164796147231385 -93.69136092062584 -51.83804413050139 1.2638751699896393 0.23045215992903334 78.02125204779884 7.88600834066623 -18.487821642825857 -1.5902773407317582e-15 3.1805546814635168e-15 -6.3611093629270335e-15 -24.117642291881427 34.50448878993675 71.98034314854611 63.547633209092844 8.502720472390704 -3.5979677121703175 -58.35079764210933 -4.344907821300034 -3.1023107933050165 -4.770832022195274e-15 -3.1805546814635164e-15 -1.3241718894150476e-31
0.5989999771118164 -0.0949999988079071 -0.40400001406669617 -173.00807019913765 28.09048724122002 172.32946331250733 2.7309749635076335 -15.064778712189698 2.6605506903800293 1.3766785163327818e-07 -2.080743082648663e-06 1.9636507389312892 138.50174425230284 33.99026870956409 -89.52599933273177 -3.1761724229678604e-06 8.948621691800904e-06 30.210732074492824 1.3987663130778249e-05 -72.94480252759907 81.08427218763444 0.0 6.361109362927033e-15 0.0 -117.32842192697754 26.372870096291035 85.76817575826423 -5.788033606204846e-07 1.2642729256359316e-06 -32.793862890958415 179.99999808774032 -45.69468260361774 96.94068700967125 -7.951386703658791e-16 0.0 0.0 28.24807084297789 35.21845532465398 -93.87119217907187 -39.97135177864055 4.082562902564274 0.00019234387584185283 78.61763314919031 2.3660294231529684 -11.58610322532718 -3.851452934584727e-16 0.0 0.0 -23.022608419082445 32.674401409229965 67.7043807739754 55.73117133957388 13.834622725584046 -3.90387561905482 -59.91986894778761 -11.423750317569729 -11.001318665446409 0.0 -1.5902773407317584e-15 0.0
0.6079999804496765 -0.11999999731779099 -0.4189999997615814 -171.38432583992756 34.18111497591052 171.70603532230362 2.294882766520501 -13.505767523020324 1.4341281623035134 -3.621773420489989e-07 9.90482086817308e-07 2.689699103393612 131.0354413641177 26.265667864532954 -86.90546290719898 -1.8356648741047874e-06 -5.717113960374532e-06 28.733509881664332 4.31239692438271e-06 -61.189364161205205 80.73312955456001 -3.180554681463516e-15 6.361109362927032e-15 1.7655625192200634e-31 -118.10605449649444 25.316845900266348 94.51173102958607 3.6627313954060114e-06 2.0766033190415555e-06 -35.85538037412537 179.9999981727685 -45.27938455204787 98.25626999804952 -7.951386703658791e-16 -6.361109362927033e-15 -4.4139062980501586e-32 28.686849798686946 28.776601955988824 -89.79714295240171 -28.815034869202222 7.1619992055323305 -2.08541872557244 81.06051885915963 -5.2944043187402325 143.89823508440728 -3.1805546814635168e-15 -6.3611093629270335e-15 -1.7655625192200634e-31 -15.555038016654619 29.235035732598725 61.994446123248906 41.15496163112767 18.24781799515655 -0.33215492064153135 -60.96066363209179 -19.582873619445365 -30.089788402617256 3.1805546814635164e-15 -1.5902773407317584e-15 -6.361109362927033e-15
0.6159999966621399 -0.125 -0.42500001192092896 -171.11934935781562 36.91757395331304 172.81436343973874 0.9710334537456373 -12.662917994692684 0.702111716363372 -4.274580648812491e-07 -6.274677465862851e-06 1.4743775804025874 134.56499784761718 24.954352092955922 -89.33672008468076 8.523704497988669e-07 3.4047380462955323e-06 29.48103947565396 -5.195558390043621e-06 -62.9308740963664 80.12816831638604 3.1805546814635168e-15 6.3611093629270335e-15 -3.1805546814635168e-15 -123.34516715220087 25.515191593374247 99.6998263028801 -2.789837473118501e-06 -4.054661416313879e-06 -36.18365258253763 179.9999998274114 -40.55097055317539 99.86967106484636 0.0 -1.2771914892751935e-14 0.0 27.848454186080737 17.628377038288573 -85.04578662030336 -16.011677364186017 6.177805813312717 -4.855690810559115 85.39920916119807 -11.92387783109721 162.61731492464506 -3.1805546814635168e-15 -6.3611093629270335e-15 -3.1805546814635168e-15 -9.53016810307164 22.230631252278496 55.16119649697011 22.29414447156819 16.16339870528114 5.805860927856794 -73.56725307384518 -24.40922664868189 -96.76694411958736 -1.5902773407317584e-15 -6.1623246953355635e-15 -8.551943452472182e-32
0.6269999742507935 -0.10700000077486038 -0.421999990940094 -173.01892831914526 35.33626564935252 175.5417305391367 -0.5708142476073598 -12.57139986925761 0.2663007455878741 -1.4366299507180408e-07 -2.4304812393908376e-06 0.8607965506514503 131.08813901438478 25.121367221354607 -84.50502800185996 1.672895384149971e-06 2.400888392812126e-06 26.998910495668227 -1.1019246468588869e-05 -59.807159045866825 78.58533937338146 0.0 0.0 -3.1805546814635176e-15 -123.3009761238079 28.306795904007362 98.20796745794607 3.911393634044812e-06 1.6500212034470657e-06 -35.64090122088354 -179.99999946548516 -41.391812155762615 102.32731760641607 1.5902773407317582e-15 6.361109362927033e-15 -8.827812596100317e-32 26.64494431526093 0.6232175020826279 -76.5150480699106 -4.700327638558854 1.9503730138907849 -3.6142641707079832 84.81213883356297 -16.67980432691513 169.2171310017591 -3.3104297235376187e-31 -4.770832022195274e-15 -7.95138670365879e-15 -7.824895381116867 7.975902028777809 47.602718143112 8.336496728712293 8.627509874257465 7.283109960538252 -87.89088402441482 -27.564215191382647 -149.15449786601923 3.180554681463516e-15 -6.361109362927033e-15 -6.361109362927033e-15
0.6399999856948853 -0.06800000369548798 -0.41999998688697815 -174.45468799295148 30.926858398384987 178.15613890405976 -0.03928236159051262 -12.211733101536016 0.30434370469621913 3.989783784073637e-07 3.632832326106796e-06 -0.47519629982257544 126.8333664618469 28.988838201940887 -77.24962353992933 8.894682092077869e-07 2.2353419630456938e-07 24.131374675372882 6.36035219772484e-06 -60.6497725737979 77.0191687361404 6.3611093629270335e-15 -6.3611093629270335e-15 6.3611093629270335e-15 -121.4820267003901 33.08786256529608 91.3043975073027 2.0371653358793675e-06 6.949598189911315e-07 -34.773006358638845 179.99999934626817 -42.594549637460766 103.29546616420869 -7.951386703658794e-16 5.517382872562698e-33 -7.951386703658794e-16 24.508017031214553 -20.434487553129955 -40.785971495984455 3.091388595043569 -4.209916223933208 24.633925759110447 87.72735911434141 -73.50368936205155 168.2036314419535 0.0 0.0 9.14409470920761e-15 -8.757623301575263 -14.045999412686635 31.716608310332067 1.426328530390273 2.8870016476693827 4.586888139077448 -90.78054466285826 -45.96848306934258 -156.25968581077743 -3.1805546814635168e-15 4.4139062980501586e-32 -1.5902773407317584e-15
0.6510000228881836 -0.01600000075995922 -0.43299999833106995 -175.2363566246241 26.485826736128864 179.27091900929082 1.2083388067847103 -10.394255278148862 0.27051626226279407 -2.179014997407861e-08 -6.832392328342149e-07 -1.5811900413831301 121.96190194134178 36.053575886894805 -68.27856159471995 -2.344884281038551e-06 1.951630913478707e-06 20.649469694093266 -5.262088890328468e-06 -62.30766332598631 71.88413215870452 -3.1805546814635168e-15 0.0 0.0 -116.84757533193759 38.72013742933853 79.61949202717803 -4.003829062389546e-07 -2.2865233859009484e-06 -32.63770546584129 179.9999890956038 -42.80642444913796 107.1539440390262 0.0 6.2617170291312985e-15 0.0 24.93175914151853 -44.47068530826361 38.77343348702331 -5.649568498098007 -6.4728116277428365 17.227126033717976 -96.52780179293546 -41.44661668830221 -19.00435112078683 -1.5902773407317588e-15 1.2414111463266072e-32 -8.945310041616142e-16 -11.589035078887267 -40.721171236541444 -6.895218451696668 -0.5300172406919247 2.6283053971373205 6.086930105558956 -89.72450690897111 -84.29283796351169 -156.42070726386552 0.0 0.0 1.391492673140289e-15
